<svg width="50" height="50" viewBox="0 0 50 50" fill="none" xmlns="http://www.w3.org/2000/svg">
<g clip-path="url(#clip0_198_329)">
<rect width="50" height="50" fill="white"/>
<rect width="50" height="50" fill="white"/>
<rect width="50" height="50" fill="#020202"/>
<path d="M16.5069 18.1802C17.6007 16.3645 19.0995 14.8892 21.0035 13.7543C22.9479 12.6195 25.1557 12.0521 27.6267 12.0521C30.5029 12.0521 33.0955 12.8465 35.4045 14.4352C37.754 16.024 39.5972 18.2937 40.934 21.2443C42.3113 24.1495 43 27.5314 43 31.3899C43 35.2483 42.3113 38.6756 40.934 41.6716C39.5972 44.6222 37.754 46.9146 35.4045 48.5487C33.0955 50.1829 30.5029 51 27.6267 51C25.1152 51 22.9074 50.4553 21.0035 49.3658C19.14 48.231 17.6412 46.7784 16.5069 45.008V50.3872H8V0H16.5069V18.1802ZM34.3108 31.3899C34.3108 29.1202 33.8854 27.1682 33.0347 25.534C32.2245 23.8545 31.1308 22.5834 29.7535 21.721C28.4241 20.8606 26.9136 20.414 25.3785 20.4272C23.8391 20.4272 22.3808 20.8812 21.0035 21.7891C19.6667 22.6515 18.5729 23.9226 17.7222 25.6021C16.912 27.2817 16.5069 29.2563 16.5069 31.526C16.5069 33.7957 16.912 35.7704 17.7222 37.4499C18.5729 39.1295 19.6667 40.4232 21.0035 41.3311C22.3808 42.1936 23.8391 42.6248 25.3785 42.6248C26.9583 42.6248 28.4167 42.1709 29.7535 41.263C31.1308 40.3551 32.2245 39.0614 33.0347 37.3818C33.8854 35.7023 34.3108 33.7049 34.3108 31.3899Z" fill="white"/>
</g>
<defs>
<clipPath id="clip0_198_329">
<rect width="50" height="50" fill="white"/>
</clipPath>
</defs>
</svg>
